<svg version="1.0" xmlns="http://www.w3.org/2000/svg" width="800.000000" height="800.000000" viewBox="0 0 800.000000 800.000000" preserveAspectRatio="xMidYMid meet">
  <metadata>
    <rdf:RDF xmlns:rdf="http://www.w3.org/1999/02/22-rdf-syntax-ns#" xmlns:rdfs="http://www.w3.org/2000/01/rdf-schema#" xmlns:dc="http://purl.org/dc/elements/1.1/">
      <rdf:Description dc:format="image/svg+xml" dc:Label="1" dc:ContentProducer="001191330110MACRLGPT8B00000" dc:ProduceID="359359040" dc:ReservedCode1="327AnwQW2IhBejhangLs/DYSMUg8bis8iba0G/KtxAk=" dc:ContentPropagator="001191330110MACRLGPT8B00000" dc:PropagateID="359359040" dc:ReservedCode2="327AnwQW2IhBejhangLs/DYSMUg8bis8iba0G/KtxAk="/>
    </rdf:RDF>
  </metadata>
  <g transform="translate(169.122824,629.069705) scale(0.057633,-0.057633)" fill="#000000" stroke="none">
    <path d="M2485 7539 c-64 -7 -186 -29 -193 -34 -13 -10 258 -378 444 -605 161 -196 481 -540 502 -540 5 0 16 -10 25 -22 16 -25 25 -23 30 10 2 12 6 25 10 28 4 4 7 17 7 29 0 27 62 154 67 138 2 -6 -8 -71 -23 -144 l-26 -133 29 -26 c223 -190 362 -298 528 -410 183 -124 576 -342 590 -329 5 5 -24 174 -51 297 -2 12 0 22 5 22 5 0 105 -64 222 -142 251 -165 304 -198 326 -198 9 0 13 3 9 8 -4 4 -13 7 -19 7 -6 0 -14 13 -18 28 -4 16 -34 61 -67 100 -134 163 -240 317 -563 817 -397 612 -475 716 -616 817 -64 46 -212 115 -273 128 -19 4 -109 31 -200 60 -293 94 -508 121 -745 94z"/>
    <path d="M2203 7503 c-13 -2 -23 -11 -23 -20 0 -12 3 -13 13 -4 8 6 31 15 53 20 34 8 35 9 9 9 -16 -1 -40 -3 -52 -5z"/>
    <path d="M2075 7436 c-212 -87 -376 -198 -569 -386 -151 -147 -212 -220 -381 -460 -229 -323 -659 -971 -702 -1057 -101 -202 -75 -382 76 -533 91 -91 206 -147 549 -266 34 -12 51 -23 47 -32 -3 -10 4 -11 30 -6 37 7 33 9 185 -111 36 -28 162 -127 280 -220 118 -92 253 -200 300 -240 101 -86 123 -98 158 -91 25 4 43 -13 206 -200 247 -282 372 -433 867 -1044 123 -151 243 -300 268 -331 26 -30 92 -112 148 -181 57 -70 111 -129 122 -133 11 -3 36 3 59 15 81 43 252 213 252 252 0 11 -27 47 -59 81 -114 118 -467 465 -716 702 -137 131 -295 282 -350 335 -55 53 -235 220 -400 372 -287 264 -355 328 -343 328 20 0 611 -255 687 -297 208 -114 445 -278 901 -623 77 -59 200 -133 355 -215 61 -32 139 -74 175 -93 36 -20 77 -42 91 -49 27 -13 46 -63 25 -63 -6 -1 -34 -49 -63 -108 -29 -59 -76 -140 -105 -180 -78 -108 -80 -113 -61 -134 9 -10 22 -18 28 -18 7 0 15 -6 18 -12 3 -7 27 -24 53 -38 27 -14 55 -30 62 -37 7 -7 29 -15 50 -19 20 -4 45 -13 56 -20 12 -8 24 -9 35 -4 9 5 28 11 43 14 15 4 68 47 128 106 l101 100 -5 43 c-3 23 -5 45 -5 49 -1 4 -8 5 -16 2 -9 -4 -15 0 -15 10 0 8 -11 18 -25 22 -30 7 -32 20 -5 34 15 8 38 5 97 -12 43 -12 79 -25 81 -29 2 -4 30 2 63 12 78 24 100 24 369 -7 262 -29 320 -31 611 -15 237 13 268 9 303 -40 93 -133 104 -145 183 -192 101 -59 133 -67 162 -38 20 20 21 28 15 126 -8 124 1 149 63 158 53 9 84 44 94 108 10 61 18 72 87 116 108 69 95 115 -53 186 -116 57 -117 51 24 120 222 107 258 243 73 278 -42 8 -105 32 -171 66 -88 44 -114 53 -158 53 -29 0 -53 2 -53 4 0 2 7 23 15 46 18 51 20 121 3 138 -24 24 -53 10 -132 -66 -45 -42 -110 -98 -146 -124 -110 -80 -117 -87 -123 -115 -3 -15 -33 -67 -66 -115 -61 -86 -61 -86 -88 -73 -22 10 -46 11 -103 3 -63 -7 -94 -19 -198 -74 -109 -58 -132 -66 -208 -75 -47 -6 -88 -8 -91 -5 -3 3 20 17 53 32 32 14 94 43 137 65 43 21 162 73 265 114 106 43 195 84 205 96 36 44 8 122 -44 122 -37 -1 -398 -115 -598 -190 l-174 -65 -41 22 c-61 34 -62 37 -35 66 46 50 218 184 358 279 77 53 149 107 160 122 44 55 11 130 -53 120 -57 -9 -505 -280 -623 -376 -35 -28 -63 -47 -63 -42 0 5 14 38 31 75 55 117 63 242 18 287 -42 42 -84 14 -113 -76 -16 -52 -48 -103 -147 -237 -44 -59 -149 -301 -203 -464 l-17 -52 -132 73 c-301 164 -426 245 -562 360 -115 98 -439 341 -575 432 -269 180 -531 319 -1011 537 -119 53 -227 108 -239 120 -17 19 -23 43 -30 122 -41 441 -60 784 -44 784 6 0 28 -18 49 -41 54 -55 170 -145 350 -269 208 -145 444 -321 482 -361 17 -19 49 -70 70 -114 37 -79 38 -82 37 -192 -1 -88 2 -113 12 -113 34 0 74 122 74 225 l1 60 22 -26 c12 -14 58 -70 102 -124 193 -237 224 -274 300 -353 240 -252 455 -386 809 -503 92 -30 140 -36 166 -19 11 7 0 10 -38 10 -81 0 -270 78 -397 163 -138 93 -270 217 -440 413 -73 85 -342 412 -385 469 -14 18 -60 76 -103 129 -57 70 -93 127 -134 214 -111 235 -135 314 -153 506 -10 105 4 384 20 400 5 5 52 -12 114 -42 88 -43 119 -65 193 -137 89 -87 114 -99 136 -64 18 29 -2 67 -81 146 -70 71 -129 116 -262 198 -44 28 -44 28 -20 38 150 60 376 194 368 217 -2 5 -48 58 -104 117 -123 132 -316 357 -409 478 -152 195 -349 475 -385 546 -11 21 -21 39 -23 39 -1 -1 -38 -16 -82 -34z m3425 -4502 l-32 -45 -71 7 c-40 3 -76 10 -81 14 -8 8 162 68 197 69 15 1 13 -6 -13 -45z m-946 -184 c35 -13 33 -28 -4 -22 -17 2 -30 10 -30 18 0 17 1 17 34 4z m111 -140 c3 -5 1 -10 -4 -10 -6 0 -11 5 -11 10 0 6 2 10 4 10 3 0 8 -4 11 -10z"/>
    <path d="M3320 6054 c0 -19 43 -169 59 -207 43 -99 228 -380 331 -502 27 -32 50 -64 50 -71 0 -14 -133 -99 -179 -115 -38 -13 -40 -49 -1 -49 33 0 119 -23 151 -41 14 -8 58 -36 97 -64 76 -52 112 -104 112 -158 0 -30 -58 -154 -96 -204 -34 -45 -99 -80 -161 -89 -43 -5 -60 -2 -107 19 -59 27 -62 27 -47 -1 6 -9 28 -56 50 -103 22 -48 67 -120 99 -160 77 -95 232 -245 346 -334 50 -39 100 -80 113 -92 13 -13 23 -17 24 -10 0 7 5 2 11 -10 8 -17 7 -28 -6 -48 -15 -24 -15 -25 1 -25 21 0 47 36 37 51 -10 16 17 1 136 -80 97 -65 105 -69 108 -48 2 12 8 27 13 33 6 8 -8 28 -45 61 -66 61 -174 143 -188 143 -6 0 -8 64 -5 173 6 257 -8 422 -63 737 -29 166 -35 246 -19 256 5 3 9 39 9 81 0 59 23 204 36 221 1 2 73 -34 161 -79 103 -53 162 -90 171 -105 7 -13 21 -24 32 -24 18 0 40 26 40 48 0 9 -1 10 -120 63 -381 171 -730 391 -1037 652 -97 83 -113 95 -113 81z m880 -2010 c-6 -54 -13 -100 -17 -103 -3 -3 -3 23 1 58 3 35 6 87 6 114 0 36 3 48 11 40 7 -7 7 -39 -1 -109z"/>
    <path d="M3418 5063 c-9 -10 -24 -34 -33 -53 -25 -48 -109 -173 -146 -215 -34 -39 -34 -39 39 -25 28 5 66 10 84 12 l34 2 0 75 c0 65 4 86 32 145 18 38 32 70 32 72 0 11 -29 2 -42 -13z"/>
    <path d="M5378 5053 c7 -3 16 -2 19 1 4 3 -2 6 -13 5 -11 0 -14 -3 -6 -6z"/>
    <path d="M5418 5043 c7 -3 16 -2 19 1 4 3 -2 6 -13 5 -11 0 -14 -3 -6 -6z"/>
    <path d="M5458 5033 c7 -3 16 -2 19 1 4 3 -2 6 -13 5 -11 0 -14 -3 -6 -6z"/>
    <path d="M5855 4930 c27 -12 43 -12 25 0 -8 5 -22 9 -30 9 -10 0 -8 -3 5 -9z"/>
    <path d="M6145 4840 c27 -12 43 -12 25 0 -8 5 -22 9 -30 9 -10 0 -8 -3 5 -9z"/>
    <path d="M994 4618 l-19 -23 23 19 c21 18 27 26 19 26 -2 0 -12 -10 -23 -22z"/>
    <path d="M7240 4430 c8 -5 20 -10 25 -10 6 0 3 5 -5 10 -8 5 -19 10 -25 10 -5 0 -3 -5 5 -10z"/>
    <path d="M7628 4278 c-10 -10 -14 -18 -9 -18 10 0 36 29 30 34 -2 1 -12 -6 -21 -16z"/>
    <path d="M7578 4263 c7 -3 16 -2 19 1 4 3 -2 6 -13 5 -11 0 -14 -3 -6 -6z"/>
    <path d="M4246 4034 c-3 -26 -4 -49 -2 -52 3 -2 8 17 11 43 4 25 5 48 3 51 -3 2 -8 -17 -12 -42z"/>
    <path d="M5490 1413 c-30 -6 -88 -66 -97 -101 -7 -31 -17 -22 282 -255 572 -445 609 -475 705 -571 l85 -86 100 0 c177 0 276 41 390 162 168 177 178 391 23 493 -52 34 -112 49 -765 189 -298 64 -555 121 -570 127 -15 6 -39 12 -53 13 -17 1 -25 6 -24 19 2 17 -19 20 -76 10z"/>
    <path d="M1891 990 c14 -31 19 -36 19 -24 0 6 -7 19 -16 30 -14 18 -14 18 -3 -6z"/>
  </g>
</svg>